<svg version="1.1" viewBox="0.0 0.0 625.5590551181102 100.0" fill="none" stroke="none" stroke-linecap="square" stroke-miterlimit="10" xmlns:xlink="http://www.w3.org/1999/xlink" xmlns="http://www.w3.org/2000/svg"><clipPath id="p.0"><path d="m0 0l625.5591 0l0 100.0l-625.5591 0l0 -100.0z" clip-rule="nonzero"/></clipPath><g clip-path="url(#p.0)"><path fill="#000000" fill-opacity="0.0" d="m0 0l625.5591 0l0 100.0l-625.5591 0z" fill-rule="evenodd"/><path fill="#f8690a" d="m0 39.65354l50.157482 -39.65354l50.157482 39.65354l-50.157482 39.65354z" fill-rule="evenodd"/><path stroke="#f8690a" stroke-width="1.0" stroke-linejoin="round" stroke-linecap="butt" d="m0 39.65354l50.157482 -39.65354l50.157482 39.65354l-50.157482 39.65354z" fill-rule="evenodd"/><path fill="#f8690a" d="m66.33596 39.65354l50.15748 -39.65354l50.157486 39.65354l-50.157486 39.65354z" fill-rule="evenodd"/><path stroke="#f8690a" stroke-width="1.0" stroke-linejoin="round" stroke-linecap="butt" d="m66.33596 39.65354l50.15748 -39.65354l50.157486 39.65354l-50.157486 39.65354z" fill-rule="evenodd"/><path fill="#f8690a" d="m126.02362 39.65354l50.157486 -39.65354l50.15747 39.65354l-50.15747 39.65354z" fill-rule="evenodd"/><path stroke="#f8690a" stroke-width="1.0" stroke-linejoin="round" stroke-linecap="butt" d="m126.02362 39.65354l50.157486 -39.65354l50.15747 39.65354l-50.15747 39.65354z" fill-rule="evenodd"/><path fill="#f8690a" d="m184.09055 39.65354l50.157486 -39.65354l50.157486 39.65354l-50.157486 39.65354z" fill-rule="evenodd"/><path stroke="#f8690a" stroke-width="1.0" stroke-linejoin="round" stroke-linecap="butt" d="m184.09055 39.65354l50.157486 -39.65354l50.157486 39.65354l-50.157486 39.65354z" fill-rule="evenodd"/><path fill="#f8690a" d="m247.10236 39.65354l50.1575 -39.65354l50.15747 39.65354l-50.15747 39.65354z" fill-rule="evenodd"/><path stroke="#f8690a" stroke-width="1.0" stroke-linejoin="round" stroke-linecap="butt" d="m247.10236 39.65354l50.1575 -39.65354l50.15747 39.65354l-50.15747 39.65354z" fill-rule="evenodd"/><path fill="#f8690a" d="m316.4042 39.65354l50.15747 -39.65354l50.15747 39.65354l-50.15747 39.65354z" fill-rule="evenodd"/><path stroke="#f8690a" stroke-width="1.0" stroke-linejoin="round" stroke-linecap="butt" d="m316.4042 39.65354l50.15747 -39.65354l50.15747 39.65354l-50.15747 39.65354z" fill-rule="evenodd"/><path fill="#f8690a" d="m385.9344 39.65354l50.15747 -39.65354l50.15747 39.65354l-50.15747 39.65354z" fill-rule="evenodd"/><path stroke="#f8690a" stroke-width="1.0" stroke-linejoin="round" stroke-linecap="butt" d="m385.9344 39.65354l50.15747 -39.65354l50.15747 39.65354l-50.15747 39.65354z" fill-rule="evenodd"/><path fill="#f8690a" d="m453.7533 39.65354l50.15747 -39.65354l50.15747 39.65354l-50.15747 39.65354z" fill-rule="evenodd"/><path stroke="#f8690a" stroke-width="1.0" stroke-linejoin="round" stroke-linecap="butt" d="m453.7533 39.65354l50.15747 -39.65354l50.15747 39.65354l-50.15747 39.65354z" fill-rule="evenodd"/><path fill="#f8690a" d="m524.7664 39.65354l50.15747 -39.65354l50.15747 39.65354l-50.15747 39.65354z" fill-rule="evenodd"/><path stroke="#f8690a" stroke-width="1.0" stroke-linejoin="round" stroke-linecap="butt" d="m524.7664 39.65354l50.15747 -39.65354l50.15747 39.65354l-50.15747 39.65354z" fill-rule="evenodd"/></g></svg>